<?xml version="1.0" encoding="UTF-8" standalone="no"?>
<!-- Created with Inkscape (http://www.inkscape.org/) -->

<svg
   version="1.1"
   id="svg1"
   width="118.98305"
   height="156"
   viewBox="0 0 118.98305 156"
   sodipodi:docname="raindrop_3.svg"
   inkscape:version="1.3.1 (91b66b0, 2023-11-16)"
   xmlns:inkscape="http://www.inkscape.org/namespaces/inkscape"
   xmlns:sodipodi="http://sodipodi.sourceforge.net/DTD/sodipodi-0.dtd"
   xmlns="http://www.w3.org/2000/svg"
   xmlns:svg="http://www.w3.org/2000/svg">
  <defs
     id="defs1">
    <clipPath
       clipPathUnits="userSpaceOnUse"
       id="clipPath1">
      <rect
         style="fill:#000000;fill-opacity:0.409326"
         id="rect2"
         width="103.11864"
         height="166.57628"
         x="245.8983"
         y="156" />
    </clipPath>
    <clipPath
       clipPathUnits="userSpaceOnUse"
       id="clipPath7">
      <rect
         style="fill:#000000;fill-opacity:0.409326"
         id="rect8"
         width="118.98305"
         height="156"
         x="105.76271"
         y="290.84744" />
    </clipPath>
  </defs>
  <sodipodi:namedview
     id="namedview1"
     pagecolor="#ffffff"
     bordercolor="#000000"
     borderopacity="0.25"
     inkscape:showpageshadow="2"
     inkscape:pageopacity="0.0"
     inkscape:pagecheckerboard="0"
     inkscape:deskcolor="#d1d1d1"
     inkscape:zoom="0.37820513"
     inkscape:cx="-173.18644"
     inkscape:cy="-218.13559"
     inkscape:window-width="1312"
     inkscape:window-height="766"
     inkscape:window-x="1743"
     inkscape:window-y="152"
     inkscape:window-maximized="0"
     inkscape:current-layer="g1" />
  <g
     inkscape:groupmode="layer"
     inkscape:label="Image"
     id="g1"
     transform="translate(-84.610169,-290.84744)">
    <g
       id="g3"
       transform="translate(-21.152542)"
       clip-path="url(#clipPath7)">
      <path
         style="fill:#606060;fill-opacity:1"
         d="m 317.8756,497.75758 c 0.0349,-0.84724 0.20723,-1.01957 0.43939,-0.4394 0.21009,0.525 0.18425,1.15227 -0.0574,1.39394 -0.24167,0.24167 -0.41356,-0.18788 -0.38198,-0.95454 z"
         id="path4" />
      <path
         style="fill:#333333;fill-opacity:1"
         d="m 299.02092,522.52267 c -9.05031,-3.92995 -15.48843,-16.0071 -14.36718,-26.95113 1.4137,-13.79853 9.63313,-31.93401 18.81799,-41.52032 2.41748,-2.52314 2.84152,-3.39408 2.4953,-5.12516 -0.2294,-1.14701 -0.14431,-2.52684 0.18909,-3.06629 3.33217,-5.39158 15.67318,25.42412 18.21708,45.48835 1.65094,13.02134 -4.15019,27.96035 -12.15666,31.30567 -3.06314,1.27986 -10.10745,1.20986 -13.19562,-0.13112 z m 12.48203,-8.32127 c 1.35447,-1.18924 3.36941,-4.18275 4.47766,-6.65225 3.78799,-8.44077 2.58341,-17.63237 -5.25061,-40.0649 l -4.24383,-12.15212 -3.75566,5.9703 c -5.03998,8.01195 -7.99755,14.73848 -10.13603,23.05286 -2.14785,8.35077 -2.389,15.05838 -0.72017,20.03139 3.38161,10.07692 13.54312,15.15788 19.62864,9.81472 z M 150.80441,413.11343 c -2.05758,-1.18011 -4.73717,-3.35413 -5.95466,-4.83115 -2.97541,-3.60968 -6.3407,-10.6926 -7.32123,-15.40899 -3.34843,-16.10591 3.6544,-39.02231 18.05989,-59.10013 4.16833,-5.80965 4.92615,-7.30577 4.60479,-9.09091 l -0.38467,-2.1368 2.37703,2.18182 c 7.08322,6.50153 16.75653,22.96601 20.72363,35.27273 2.59699,8.05634 3.31689,21.71673 1.54206,29.26097 -4.65362,19.78098 -20.79487,31.22362 -33.64684,23.85246 z M 164,407.00893 c 4.52869,-2.1223 10.1141,-8.03069 12.31867,-13.03099 3.39265,-7.69504 4.07976,-15.3068 2.27937,-25.25067 -1.30268,-7.19496 -3.39233,-12.48956 -10.59552,-26.84622 l -5.98924,-11.93713 -2.48745,3.93713 c -7.1667,11.34347 -13.62652,26.54783 -15.84738,37.29973 -3.4117,16.51711 1.17122,31.78827 10.86077,36.19014 3.8105,1.73107 5.09976,1.68174 9.46078,-0.36199 z M 286.02152,290.89589 c -7.50604,-3.75081 -12.89077,-10.75638 -15.94546,-20.74513 -2.13227,-6.97247 -1.79745,-21.06758 0.73741,-31.04299 2.51861,-9.91147 4.53734,-14.76443 12.73321,-30.61025 3.64933,-7.05556 6.63514,-13.51624 6.63514,-14.35706 0,-1.34254 0.28442,-1.46629 2.3349,-1.01593 3.9861,0.8755 6.2296,3.14242 8.1884,8.27392 5.01281,13.13209 8.58022,22.18084 11.31189,28.69263 4.63816,11.05652 6.77885,21.3837 6.80273,32.81801 0.0172,8.22505 -0.20222,10.02201 -1.68711,13.81818 -4.2805,10.94321 -11.47534,16.36364 -21.72038,16.36364 -4.10502,0 -5.78301,-0.39222 -9.39073,-2.19502 z m 14.18366,-6.93275 c 14.34025,-5.98114 15.15403,-27.21815 2.1584,-56.32678 -2.58943,-5.8 -5.77251,-13.32727 -7.07351,-16.72727 -1.30101,-3.4 -2.67167,-6.9825 -3.04593,-7.96111 -0.74571,-1.94991 -0.50274,-2.40977 -9.44268,17.87139 -13.1708,29.87931 -9.25338,58.09124 8.8302,63.59202 2.95169,0.89786 5.68927,0.75474 8.57352,-0.44825 z M 122.81577,187.60353 c -6.53482,-1.06494 -11.71872,-5.14907 -15.38055,-12.11756 -3.66295,-6.97059 -4.68862,-13.12552 -3.53002,-21.1831 2.80139,-19.48241 20.83695,-54.840023 35.60278,-69.797073 3.03883,-3.078188 5.86543,-6.578524 6.28131,-7.778524 2.04508,-5.900825 9.90262,-0.142065 15.50049,11.360232 3.71484,7.633122 7.77893,19.615835 8.93758,26.351875 0.52948,3.07822 0.7197,9.05887 0.49734,15.63637 -0.40042,11.84419 -2.01163,18.78261 -6.73622,29.00837 -6.28506,13.60318 -18.05655,25.08968 -28.36429,27.67759 -4.52738,1.13666 -9.13922,1.43977 -12.80842,0.84182 z m 13.7508,-12.76187 c 2.22806,-1.09009 6.21402,-4.12043 8.9063,-6.77105 8.42297,-8.29265 12.7644,-16.72101 14.88923,-28.90566 2.16507,-12.41547 0.84109,-23.2397 -4.4792,-36.6195 -2.65464,-6.676054 -7.30629,-16.326316 -8.73623,-18.124075 -1.31197,-1.649439 -11.95621,14.314637 -19.68832,29.528265 -12.37226,24.34352 -17.11807,42.85211 -13.65849,53.26793 1.38047,4.15619 5.27711,8.45556 8.58357,9.47071 3.66434,1.12502 9.72112,0.33644 14.18314,-1.84662 z"
         id="path3" />
    </g>
  </g>
</svg>
